<svg xmlns="http://www.w3.org/2000/svg" width="55" height="32">
  <path fill="#fff" d="M17.598 16.509c.04.344.379.533.698.671.18.086.339.155.499.292s.299.327.519.43c.22.103.439.052.638-.069.12-.069.16-.052.259.052.1.086.16.206.239.292.14.172.339.275.579.292.04 0 .14-.017.18 0 .06.034.06.069.08.138.04.155.08.292.1.447.04.293.02.568.04.843 0 .206.08.396.279.533.279.206.838.224.918.568.06.224.08.396.259.585.199.206.419.361.559.602.299.499.439 1.084.618 1.6l.06.155c.02.069.1.155 0 .189s-.279-.052-.359-.086a1.12 1.12 0 0 0-.419-.086c-.14 0-.22.069-.339.12-.14.052-.16-.052-.279-.103a.408.408 0 0 0-.319-.017c-.12.034-.259.138-.379.12-.16-.017-.239-.138-.219-.275.02-.155-.2-.206-.319-.155-.399.155-.718.43-.858.791-.08.172-.1.361-.08.55.02.224.16.447-.06.619-.16.12-.339.206-.479.344-.16.172-.239.361-.319.568-.12.344-.259 1.084-.858.946-.16-.034-.299.069-.299.206-.02.516.678.533 1.037.774.399.293.838.293 1.277.017.379-.224.658-.619 1.177-.568.419.034.838.31.898.688.04.224.419.189.359-.034-.12-.671-.978-1.135-1.736-.946-.479.12-.738.551-1.197.671-.299.086-.439-.12-.678-.241-.16-.103-.678-.155-.678-.361l-.299.206c.479.172.978-.12 1.197-.499.259-.413.239-.981.698-1.29.18-.12.359-.224.459-.396.14-.224.06-.43 0-.654-.1-.447.16-.895.658-1.067-.1-.052-.22-.103-.319-.155-.06.465.519.757.978.585.08-.034.14-.086.22-.052.04.017.1.086.14.103.1.052.219.086.319.052.1-.017.16-.086.259-.12.18-.086.339.034.519.103.2.069.459.086.658-.017.259-.138.219-.396.14-.619-.2-.585-.379-1.221-.678-1.772a2.027 2.027 0 0 0-.479-.585c-.1-.103-.22-.189-.279-.327-.06-.155-.04-.31-.12-.447a.908.908 0 0 0-.439-.344c-.18-.086-.439-.12-.579-.258-.12-.103-.08-.224-.08-.361v-.482a3.649 3.649 0 0 0-.16-.912c-.1-.275-.319-.344-.618-.344s-.379-.275-.559-.447c-.2-.206-.519-.344-.818-.206-.06.017-.12.086-.16.103-.02.034-.04.034-.06.017-.04-.034-.08-.052-.1-.086-.1-.086-.22-.172-.339-.224-.459-.206-1.097-.241-1.377-.671-.1-.069-.2-.052-.18 0z"/>
  <path fill="#fff" d="M23.283 28.57c0-.619-.04-1.239-.12-1.858-.12.052-.239.086-.359.138.2.172.399.344.598.533.08.069.259.069.319-.034.2-.344.399-.688.559-1.032-.12.017-.239.034-.379.034.12.155.299.258.519.258.259 0 .419-.172.638-.241.459-.138.958 0 1.416-.189.379-.172.598-.551.539-.912-.08-.396-.479-.654-.918-.688.06.052.14.086.199.138-.18-.43.579-.74.938-.86a4.215 4.215 0 0 1 1.536-.189c.259.017.259-.327 0-.344a4.332 4.332 0 0 0-1.995.327c-.499.206-1.097.619-.878 1.153.04.086.1.12.2.138.319.017.579.258.539.533-.04.31-.359.43-.658.465-.279.034-.579.017-.858.069-.12.017-.239.052-.359.103-.14.069-.339.241-.479.069a.236.236 0 0 0-.379.034c-.14.327-.319.654-.519.963.1-.017.219-.017.319-.034-.199-.189-.399-.361-.598-.551-.12-.103-.379-.034-.359.138.06.637.18 1.256.319 1.875.02.103.219.086.219-.034z"/>
  <path fill="#fff" d="M28.71 23.615c.399-.034.818-.069 1.217-.12.339-.034.778-.086 1.057.138.12.086.2.224-.02.206-.18-.017-.359-.052-.539-.069-.419-.052-.858-.103-1.277-.155-.14-.017-.299.052-.279.189.02.189.14.31.339.396.06.017.658.206.339.275-.239.069-.18.344.06.361.678.069 1.237.482 1.875.671.778.224 1.576 0 2.374.155.18.034.379.086.539.155.1.034.18.069.279.103.02.017.08.052.12.052.04.034.06.034.02-.017 0-.034-.02-.034-.04-.017-.06 0-.16.069-.219.086-.08.034-.18.069-.259.12-.16.069-.319.155-.459.224a8.977 8.977 0 0 0-1.676 1.17c-.199.172-.479.378-.559.637-.06.206.04.447.299.482.279.034.579-.138.878-.172.14-.017.299 0 .399.086s.16.206.259.292c.1.069.2.12.319.12.199 0 .379-.103.479.086.18.275.18.671.16.981-.04.568-.319 1.222.299 1.652.539.379 1.297.275 1.835-.034.339-.189.598-.447.878-.688.279-.258.579-.482.858-.723.12-.086 0-.275-.16-.224-.658.189-1.037.74-1.536 1.136-.419.327-1.237.671-1.696.172-.239-.258-.14-.637-.1-.946.06-.31.08-.602.02-.912-.04-.258-.1-.568-.319-.774a.657.657 0 0 0-.319-.138c-.18-.017-.359.086-.499-.034-.08-.086-.14-.172-.219-.258a.915.915 0 0 0-.379-.172c-.279-.052-.559 0-.838.069-.08.017-.16.034-.239.069-.06.034-.08-.017-.04.052.06.069.02 0 .04-.017a.579.579 0 0 0 .1-.138c.06-.069.12-.12.199-.189.239-.224.499-.447.758-.654a9.994 9.994 0 0 1 1.776-1.015c.219-.103.499-.293.299-.516-.18-.206-.618-.327-.918-.396a4.968 4.968 0 0 0-1.237-.155c-.439 0-.878.069-1.317-.052-.738-.189-1.317-.654-2.095-.723l.06.361c.319-.086.519-.413.339-.688a.612.612 0 0 0-.339-.224c-.06-.017-.339-.103-.339-.12l-.219.189c.579.069 1.177.155 1.756.206.399.034.818-.12.658-.533-.14-.361-.599-.516-1.017-.516-.598 0-1.197.103-1.796.172-.14.069-.14.344.06.327z"/>
  <path fill="#fff" d="M38.246 30.325c.2-.155.459-.086.698-.069s.479.017.698-.069c.419-.155.658-.516 1.017-.757.2-.12.439-.189.678-.138.279.052.419.292.678.378.219.069.479 0 .698-.034.239-.052.459-.12.658-.241.16-.103.319-.224.399-.379.12-.206.04-.43.219-.619.12-.138.259-.258.219-.447s-.259-.275-.459-.293a1.586 1.586 0 0 0-.698.052c-.18.052-.519.172-.618.344l-.04.034c.06.052.06.052.02 0 0-.017-.04-.069-.04-.086-.04-.069-.08-.138-.16-.189-.18-.138-.459-.138-.658-.034-.219.103-.299.378-.539.447-.259.086-.559-.138-.718-.293a3.745 3.745 0 0 1-.918-1.273c-.1-.224-.16-.447-.219-.671-.04-.206-.18-.637 0-.791.2-.172.519-.292.758-.43.279-.155.539-.31.818-.465.539-.293 1.037-.637 1.596-.895.319-.138.539-.034.858-.034.239 0 .459-.103.678-.189.1-.034.219-.086.339-.086.14 0 .279.052.399.069.219.034.419-.034.599-.155.16-.103.259-.258.419-.361.219-.172.499-.138.778-.206s.499-.206.738-.344c.299-.155.519-.224.878-.206.559.034 1.157-.034 1.257-.602.04-.292.06-.585.16-.895.08-.275.16-.619.519-.723.299-.086.519-.172.758-.361.219-.189.479-.499.838-.447.16.017.279-.172.12-.258-.559-.275-.958.172-1.337.465-.2.172-.439.189-.698.275-.239.103-.379.293-.479.499-.12.241-.2.499-.259.757l-.06.361c-.02.138 0 .31-.12.413-.2.172-.579.086-.798.069a1.608 1.608 0 0 0-.798.155c-.219.103-.419.241-.638.344-.279.12-.579.086-.858.172-.18.069-.319.189-.459.31-.14.138-.279.327-.519.293-.259-.052-.439-.103-.718-.052-.259.069-.499.241-.758.241-.14 0-.279-.052-.439-.052-.14-.017-.279.017-.419.052-.299.086-.539.258-.798.413-.539.31-1.077.602-1.616.912-.259.138-.519.293-.778.43-.239.138-.459.241-.519.499-.06.224 0 .482.04.705.04.275.12.533.239.791.2.447.459.877.818 1.256.299.327.718.705 1.257.671a.961.961 0 0 0 .618-.293c.06-.069.16-.206.279-.224s.14.103.199.189c.1.138.279.241.479.172.1-.034.18-.103.259-.155.12-.103.239-.172.379-.224.12-.034.239-.052.359-.069.06 0 .12 0 .18.017.04 0 .1-.052 0 0-.2.12-.279.361-.299.568-.02.258-.16.396-.439.482-.2.069-.658.224-.858.12-.12-.069-.219-.172-.339-.241a1.48 1.48 0 0 0-.399-.12 1.473 1.473 0 0 0-.818.086c-.459.206-.678.723-1.157.877-.459.138-.998-.052-1.317.361-.08.155.06.241.16.189z"/>
  <path fill="#fff" d="m38.246 30.325.013.025.002-.001.002-.002-.017-.022zm1.396-.138-.01-.026h-.001l.01.026zm1.018-.757-.014-.024h-.002l.016.023zm.678-.138-.006.027h.001l.005-.027zm.679.379-.009.026.008-.027zm.698-.034.004.027h.002l-.006-.027zm.658-.241.014.024-.015-.023zm.399-.379-.024-.014v.002l.025.013zm.22-.619.02.019-.021-.018zm-.24-.74-.004.028h.002l.002-.028zm-.698.052.008.027h.001l-.008-.027zm-.619.344.018.021.004-.003.002-.004-.024-.014zm-.039.034-.018-.021-.024.021.024.021.018-.021zm.02 0h-.028v.009l.006.008.022-.017zm-.04-.086h.028v-.008l-.004-.006-.024.014zm-.16-.189-.017.022.001.001.001.001.015-.023zm-.658-.035.012.025h.001l-.013-.025zm-.539.448-.008-.027h-.002l.009.026zm-.718-.293.019-.02-.001-.001-.019.021zm-.918-1.273.026-.011-.025.011zm-.219-.671-.027.005v.002l.027-.007zm.758-1.221-.013-.024.014.024zm.818-.465-.013-.024.014.024zm1.596-.895-.011-.026h-.001l.012.025zm1.536-.223-.009-.026h-.002l.01.026zm.738-.017.004-.027-.004.028zm.599-.155-.015-.023.016.023zm.418-.362.015.023.001-.001.001-.001-.017-.022zm1.517-.55-.013-.025h-.002l.014.024zm.877-.206.002-.028-.001.028zm1.257-.603.027.005v-.001l-.028-.004zm.16-.894.026.009v-.001l-.027-.008zm.519-.723zm.758-.361.017.022h.001l-.018-.021zm.838-.448-.004.028h.001l.003-.028zm.119-.258.013-.024-.012.025zm-1.336.465-.017-.022h-.002l.018.021zm-.699.275-.009-.026h-.002l.011.026zm-.478.499.025.012-.025-.012zm-.26.757-.027-.006v.002l.027.005zm-.06.361-.027-.005v.001l.028.004zm-.917.482.002-.028h-.001l-.002.028zm-.798.155-.012-.025.012.025zm-.639.344.011.026-.012-.025zm-.858.172-.008-.027h-.002l.01.026zm-.458.31-.018-.021-.001.001-.001.001.02.02zm-.519.292-.005.027h.002l.004-.027zm-.718-.051-.005-.027h-.002l.007.027zm-1.197.189-.003.028h.004v-.028zm-.419.052-.007-.027h-.002l.008.027zm-.798.413.014.024-.014-.024zm-1.616.911.013.025-.014-.024zm-.778.43-.013-.025.014.024zm-.519.499.027.007v-.001l-.027-.006zm.04.706.028-.004-.027.005zm.239.791.025-.011-.025.012zm.818 1.256.021-.019-.02.019zm1.257.671.002.028-.002-.028zm.619-.292.019.02.001-.001.001-.001-.021-.018zm.478-.035-.023.016.023-.016zm.479.172zm.26-.155.015.023.002-.001.001-.001-.018-.021zm.379-.223-.008-.027h-.002l.01.026zm.359-.069v-.028h-.004l.004.028zm-.12.585-.028-.003.028.002zm-.439.482-.008-.027.009.026zm-.858.12-.014.024h.002l.013-.025zm-.339-.241.014-.024-.001-.001-.001-.001-.011.026zm-.399-.12-.005.027h.002l.003-.028zm-.818.086-.01-.026h-.002l.011.025zm-1.157.877.008.027h.001l-.009-.026zm-1.317.362-.022-.017-.002.002-.001.002.025.013zm.177.211a.496.496 0 0 1 .317-.093c.058 0 .118.005.179.012s.123.014.183.018l.004-.056c-.059-.004-.119-.012-.181-.018s-.124-.012-.185-.012a.546.546 0 0 0-.351.105l.034.044zm.679-.063c.24.017.485.018.71-.071l-.02-.052c-.213.084-.447.084-.686.067l-.004.056zm.71-.071c.214-.079.382-.211.54-.352.159-.141.306-.289.483-.408l-.031-.046c-.182.122-.334.275-.489.413a1.655 1.655 0 0 1-.522.341l.019.052zm1.022-.759c.196-.118.428-.184.658-.134l.012-.054c-.248-.054-.495.018-.699.141l.029.048zm.659-.134a.792.792 0 0 1 .335.171c.101.076.205.162.34.206l.018-.053c-.124-.041-.22-.119-.324-.198a.845.845 0 0 0-.358-.182l-.01.055zm.675.378c.115.036.239.036.36.023s.243-.039.35-.056l-.009-.055c-.112.018-.229.043-.348.056s-.233.012-.338-.02l-.017.053zm.713-.034c.241-.052.464-.122.667-.244l-.029-.048a2.077 2.077 0 0 1-.65.237l.012.054zm.667-.245c.16-.103.325-.227.409-.389l-.049-.026c-.076.148-.23.265-.389.368l.03.047zm.408-.388c.063-.109.074-.223.091-.326a.502.502 0 0 1 .125-.289l-.04-.038a.55.55 0 0 0-.139.318c-.018.108-.027.209-.084.307l.048.028zm.217-.615c.058-.067.126-.134.172-.208a.343.343 0 0 0 .054-.264l-.054.012a.284.284 0 0 1-.046.222c-.043.069-.105.13-.167.201l.042.037zm.225-.471c-.022-.105-.094-.179-.183-.229s-.198-.076-.3-.085l-.005.055c.097.008.198.033.278.078s.138.108.156.192l.054-.012zm-.482-.315a1.602 1.602 0 0 0-.711.053l.017.053c.215-.067.45-.084.686-.051l.008-.055zm-.71.053c-.091.026-.222.07-.344.129-.12.058-.237.134-.291.228l.048.028c.045-.078.148-.148.267-.206.118-.057.246-.1.335-.125l-.015-.053zm-.629.35-.002.002-.001.001-.004.003c-.001.001.001-.001 0 0h-.001c-.001.001 0 0 0 0l-.002.002-.001.001c-.001.001.001-.001 0 0l-.007.006-.006.005-.001.001-.001.001-.002.002h-.002l-.001.001-.002.002-.001.001-.001.001h-.001c-.002 0 0 0-.001.001l.018.021.018.021.001-.001c.001-.001-.001.001 0 0l.001-.001c.002-.001 0 0 0 0l.002-.002h.001c.001 0 0 0 0 0h.001l.001-.001.001-.001.027-.024-.036-.042zm-.04.076.034.029a.278.278 0 0 0 .011.008l.005.003.004.002c.001.001.005.002.011.002s.018-.003.024-.014c.005-.009.004-.017.003-.019a.025.025 0 0 0-.004-.01l-.007-.01-.023-.03-.044.034.022.028.003.004-.001-.001-.002-.005c0-.002-.002-.01.003-.019.007-.011.018-.014.024-.014s.009.001.01.002l.003.001c.001 0 .001 0 0 0l-.008-.006-.034-.029-.036.042zm.066-.021c0-.007-.002-.013-.003-.017l-.006-.013a.493.493 0 0 0-.015-.026l-.013-.023-.003-.007v.001h-.056c0 .007.002.013.003.017l.006.013.015.026.013.023.003.007v-.001h.056zm-.043-.1c-.04-.069-.082-.143-.169-.199l-.03.047a.473.473 0 0 1 .151.18l.048-.028zm-.167-.197c-.19-.146-.481-.144-.688-.037l.026.049c.192-.099.459-.098.629.032l.034-.044zm-.687-.038c-.116.055-.195.155-.271.244-.078.09-.153.17-.263.202l.015.053c.129-.037.213-.129.29-.219.079-.092.149-.181.253-.23l-.024-.05zm-.536.446c-.12.04-.251.009-.375-.054s-.236-.155-.315-.232l-.039.04c.081.079.198.175.328.241s.278.104.418.058l-.018-.053zm-.691-.286a3.714 3.714 0 0 1-.911-1.264l-.051.022c.201.468.523.919.925 1.283l.037-.041zm-.91-1.264c-.099-.221-.158-.443-.218-.667l-.054.014c.06.223.12.449.221.675l.051-.023zm-.218-.665c-.021-.107-.065-.261-.082-.413-.009-.075-.01-.147.001-.208s.034-.111.072-.144l-.036-.042c-.051.044-.078.107-.091.176s-.01.147-.001.224c.018.154.063.318.083.417l.055-.011zm-.009-.765c.097-.084.224-.156.359-.224.133-.068.275-.134.395-.203l-.028-.048c-.119.068-.257.132-.393.202a1.878 1.878 0 0 0-.37.232l.036.042zm.753-.427c.14-.078.275-.155.409-.232s.269-.155.409-.232l-.027-.049c-.14.078-.275.155-.409.232s-.269.155-.409.232l.027.049zm.818-.464c.27-.147.53-.306.791-.461s.525-.305.803-.433l-.023-.051c-.281.13-.546.281-.808.436s-.521.314-.79.46l.027.049zm1.594-.894c.154-.067.284-.075.416-.067.067.004.133.013.204.02s.145.014.227.014v-.056c-.078 0-.151-.006-.221-.014s-.138-.016-.206-.021a.904.904 0 0 0-.442.071l.022.051zm.847-.032c.246 0 .472-.106.688-.191l-.02-.052c-.222.087-.435.187-.668.187v.056zm.687-.191c.103-.035.216-.084.33-.084v-.056c-.126 0-.252.054-.348.088l.018.053zm.33-.084c.067 0 .134.012.201.027.066.015.133.032.194.041l.008-.055c-.058-.008-.121-.025-.19-.04a.994.994 0 0 0-.213-.029v.056zm.395.068c.228.036.435-.036.618-.159l-.031-.046c-.176.118-.368.183-.579.15l-.009.055zm.618-.159c.083-.053.149-.12.214-.184s.128-.127.205-.177l-.03-.047c-.083.053-.149.12-.214.184s-.128.127-.205.177l.03.047zm.421-.363a.732.732 0 0 1 .354-.136c.128-.021.273-.03.414-.065l-.013-.054c-.139.034-.273.042-.409.064a.797.797 0 0 0-.379.147l.034.044zm.767-.201c.284-.07.507-.21.745-.347l-.028-.048c-.241.138-.456.274-.731.341l.013.054zm.744-.346c.296-.153.511-.22.864-.203l.003-.056c-.365-.017-.589.053-.892.21l.026.049zm.864-.204c.28.017.574.009.812-.077.239-.087.422-.253.474-.548l-.055-.01c-.048.272-.214.424-.438.506-.226.082-.511.091-.789.074l-.003.056zm1.286-.626c.04-.295.06-.583.159-.89l-.053-.017c-.101.313-.121.609-.161.899l.055.008zm.159-.891c.04-.139.079-.29.152-.42a.57.57 0 0 1 .347-.284l-.015-.053a.621.621 0 0 0-.381.31c-.077.137-.118.295-.157.432l.053.015zm.499-.703c.301-.086.524-.174.768-.366l-.035-.044c-.235.186-.451.271-.749.356l.015.053zm.769-.367c.113-.097.229-.219.364-.312a.625.625 0 0 1 .452-.129l.008-.055a.678.678 0 0 0-.491.138c-.139.096-.262.224-.369.316l.036.042zm.817-.441a.21.21 0 0 0 .207-.105c.018-.033.025-.072.013-.11s-.039-.071-.085-.096l-.026.049c.035.019.051.041.058.062s.003.045-.009.068a.156.156 0 0 1-.152.076l-.006.055zm.135-.311c-.289-.142-.538-.097-.761.02a2.05 2.05 0 0 0-.315.213c-.101.08-.195.161-.29.234l.034.044c.094-.073.193-.158.29-.235.099-.078.2-.152.306-.208.211-.111.441-.152.71-.019l.025-.05zm-1.367.469a.843.843 0 0 1-.317.164c-.058.018-.118.034-.18.05s-.126.034-.192.056l.018.053c.064-.021.127-.038.189-.055s.123-.032.182-.051a.915.915 0 0 0 .337-.175l-.036-.042zm-.692.271c-.248.107-.392.303-.493.512l.05.024c.098-.203.234-.386.465-.485l-.022-.051zm-.492.512a3.458 3.458 0 0 0-.261.763l.054.013c.06-.257.139-.513.257-.751l-.05-.025zm-.262.765-.03.181-.03.181.055.009.03-.181.03-.181-.055-.009zm-.06.361c-.005.036-.008.073-.011.11s-.006.074-.012.109a.281.281 0 0 1-.088.177l.036.042a.34.34 0 0 0 .107-.21c.006-.038.01-.077.012-.114s.005-.073.01-.106l-.055-.008zm-.11.396c-.092.079-.227.101-.373.099-.072-.001-.145-.008-.215-.016s-.135-.016-.19-.021l-.004.055c.054.004.118.013.188.021s.145.015.22.016c.149.002.302-.019.41-.112l-.036-.042zm-.779.062a1.635 1.635 0 0 0-.811.157l.023.05c.255-.119.51-.169.785-.152l.003-.056zm-.811.158c-.111.052-.217.113-.321.173s-.209.12-.317.171l.024.05c.111-.052.217-.113.321-.173s.209-.12.317-.171l-.024-.05zm-.638.344c-.136.058-.277.08-.421.097-.143.017-.291.03-.434.074l.016.053c.137-.042.278-.055.424-.072a1.53 1.53 0 0 0 .437-.101l-.022-.051zm-.856.171c-.185.071-.328.195-.467.315l.036.042c.14-.121.276-.238.451-.305l-.02-.052zm-.469.316c-.072.071-.139.149-.219.208a.361.361 0 0 1-.276.077l-.008.055a.414.414 0 0 0 .317-.087c.084-.062.158-.147.225-.213l-.039-.04zm-.494.285c-.258-.051-.443-.104-.729-.052l.01.055c.273-.05.447 0 .708.052l.011-.055zm-.73-.051c-.132.035-.26.097-.383.147a.985.985 0 0 1-.368.093v.056c.136 0 .264-.045.39-.097.127-.052.248-.111.376-.145l-.014-.054zm-.751.24c-.067 0-.134-.012-.207-.025s-.149-.026-.232-.026v.056c.077 0 .15.012.222.025s.144.026.217.026v-.056zm-.436-.052c-.146-.018-.29.018-.429.052l.013.054c.141-.035.275-.067.409-.051l.007-.055zm-.43.053c-.304.087-.548.262-.805.416l.029.048c.262-.156.497-.325.791-.41l-.015-.053zm-.804.415c-.269.155-.538.305-.808.456s-.539.301-.808.456l.028.048c.269-.155.538-.305.808-.456s.539-.301.808-.456l-.028-.048zm-1.615.912c-.13.069-.26.142-.39.215s-.259.146-.388.215l.026.049c.13-.069.26-.142.39-.215s.259-.146.388-.215l-.026-.049zm-.779.43c-.118.068-.236.13-.33.207a.547.547 0 0 0-.202.31l.054.013a.491.491 0 0 1 .182-.279c.09-.073.202-.132.323-.202l-.028-.048zm-.532.516c-.031.116-.031.241-.018.363s.038.244.058.355l.055-.01c-.02-.113-.045-.232-.057-.351s-.012-.235.017-.343l-.054-.014zm.039.717c.04.278.121.539.242.799l.05-.023a2.759 2.759 0 0 1-.237-.784l-.055.008zm.242.798c.2.449.461.882.823 1.264l.04-.038a4.401 4.401 0 0 1-.813-1.248l-.051.023zm.823 1.264c.299.327.726.715 1.279.68l-.004-.056c-.524.034-.935-.335-1.235-.662l-.041.038zm1.279.68a.992.992 0 0 0 .636-.3l-.039-.04a.936.936 0 0 1-.601.285l.004.056zm.638-.302c.031-.036.069-.085.115-.129s.096-.078.147-.085l-.008-.055c-.069.01-.129.054-.177.1s-.091.1-.119.133l.042.037zm.262-.215c.025-.004.043 0 .056.007s.027.02.039.037c.012.018.023.038.036.062s.025.048.041.071l.046-.032c-.014-.02-.026-.042-.038-.065s-.025-.047-.04-.068c-.015-.021-.034-.041-.059-.054s-.055-.018-.09-.013l.008.055zm.173.179c.104.144.296.256.51.182l-.018-.053c-.184.064-.352-.031-.447-.162l-.045.033zm.51.182a.643.643 0 0 0 .143-.074l.063-.043.059-.041-.03-.047-.061.042-.061.042a.732.732 0 0 1-.131.068l.018.053zm.269-.161c.117-.101.234-.168.371-.219l-.019-.052a1.223 1.223 0 0 0-.388.229l.036.042zm.368-.218c.118-.034.235-.051.355-.068l-.008-.055a2.666 2.666 0 0 0-.363.07l.015.053zm.352-.067c.06 0 .116 0 .172.016l.015-.053c-.064-.018-.128-.018-.187-.018v.056zm.179.017c.015 0 .03-.005.042-.009s.022-.011.029-.017a.024.024 0 0 0 .008-.009c.001-.002.004-.007.004-.014a.029.029 0 0 0-.011-.024.024.024 0 0 0-.015-.006h-.007a.37.37 0 0 0-.061.026l.026.049c.025-.013.038-.018.043-.02.001 0 .001 0 0 0h-.005a.024.024 0 0 1-.013-.005.03.03 0 0 1-.011-.023c0-.007.003-.011.004-.013l.003-.004.001-.001-.004.003-.01.005a.064.064 0 0 1-.02.005v.056zm-.014-.052c-.211.127-.292.379-.313.589l.055.005c.02-.203.098-.433.286-.547l-.029-.048zm-.313.59c-.01.124-.048.217-.115.289s-.167.126-.305.169l.016.053c.142-.044.252-.102.329-.184s.119-.188.13-.322l-.056-.004zm-.42.457c-.1.034-.263.09-.426.124-.081.017-.162.028-.234.029s-.133-.009-.177-.031l-.026.049c.056.029.127.039.203.038s.161-.013.244-.031a3.56 3.56 0 0 0 .432-.126l-.018-.053zm-.835.123c-.058-.033-.111-.075-.166-.118s-.111-.087-.173-.123l-.028.048c.058.033.111.075.166.118s.111.087.173.123l.028-.048zm-.342-.242a1.496 1.496 0 0 0-.407-.122l-.007.055c.136.017.272.067.391.118l.022-.051zm-.405-.123a1.498 1.498 0 0 0-.833.088l.021.052c.255-.101.529-.135.803-.085l.01-.055zm-.834.088c-.235.106-.408.291-.579.464-.172.174-.343.337-.575.412l.017.053c.247-.08.425-.252.597-.426.173-.175.339-.352.563-.452l-.023-.051zm-1.154.877a1.55 1.55 0 0 1-.348.055c-.118.008-.241.01-.357.021-.235.022-.459.079-.625.295l.044.034c.153-.197.357-.252.587-.273.116-.011.233-.013.356-.021a1.59 1.59 0 0 0 .361-.058l-.016-.053zm-1.333.375c-.044.086-.03.161.018.205a.158.158 0 0 0 .179.021l-.026-.049a.102.102 0 0 1-.115-.013c-.026-.024-.042-.07-.007-.139l-.049-.026z"/>
  <path fill="#fff" d="M51.413 18.832c.399.052.778.069 1.177.069.339 0 .758.069 1.097-.034.618-.206.519-.809.638-1.256.08-.224.399-.378.379-.637-.02-.138-.1-.189-.199-.258-.12-.086-.14-.189-.14-.327 0-.258 0-.551-.279-.723-.2-.138-.479-.138-.658.017.12.034.239.052.359.086-.04-.138-.06-.31 0-.447.08-.189.219-.206.439-.224.319-.017.698-.086.758-.413.02-.103-.02-.206-.14-.224a6.128 6.128 0 0 1-.539-.12c-.1-.017-.479-.052-.399-.189.06-.086.319-.12.419-.155.14-.052.259-.103.359-.189.219-.155.379-.361.459-.602.1-.293-.02-.533-.04-.826-.02-.275.279-.516.1-.774-.14-.189-.419-.224-.638-.155-.14.034-.239.12-.379.155-.16.052-.239-.017-.339-.12-.16-.172-.299-.344-.539-.43s-.479-.069-.718-.103c-.1-.017-.2-.017-.259-.086s-.08-.206-.12-.292c-.14-.224-.359-.224-.579-.103-.18.086-.339-.017-.499-.103s-.339-.155-.519-.224a6.643 6.643 0 0 0-.998-.344c-.239-.069-.579-.172-.758.034-.04.034-.08.241-.12.258-.08.034-.359-.138-.439-.172a3.66 3.66 0 0 1-.738-.551c-.239-.241-.359-.55-.599-.809-.219-.258-.539-.293-.878-.275a4.16 4.16 0 0 0-1.117.258c-.18.069-.339.155-.499.241-.08.034-.439.206-.419.017.02-.224-.319-.258-.439-.103-.1.12-.399-.052-.479-.103-.18-.12-.359-.241-.579-.292-.259-.052-.439.052-.658.103s-.459.017-.658-.103a.702.702 0 0 1-.339-.465c-.04-.206.06-.379.08-.568.04-.396-.299-.705-.359-1.101-.04-.258-.499-.155-.459.103.04.241.199.447.299.671.12.241 0 .447-.04.688-.04.465.279.912.778 1.084.239.086.499.103.758.069.14-.017.279-.103.419-.12.16 0 .279.086.399.155.379.241.918.447 1.257.034-.14-.034-.299-.069-.439-.103-.02.241.199.43.439.482.319.069.598-.103.838-.241.339-.189.718-.31 1.117-.361.16-.017.359-.052.499.017.16.069.219.241.299.379a3.49 3.49 0 0 0 1.337 1.204c.219.12.539.275.818.155.12-.052.16-.155.199-.241.04-.069.02-.086.12-.086s.239.069.339.103c.379.12.738.258 1.097.413.279.12.598.361.938.292a.675.675 0 0 0 .2-.086c.02-.017-.02-.086 0 .017s.08.206.14.275c.16.172.399.224.638.241.259.017.519.017.718.189.18.155.279.379.539.447.319.103.519-.086.818-.155.219-.069.12.086.06.189a.87.87 0 0 0-.06.447c.06.344.16.637-.12.946a.925.925 0 0 1-.459.275c-.16.052-.319.069-.439.155-.239.155-.319.465-.08.654.12.086.279.12.419.155l.718.155c-.04-.069-.1-.155-.14-.224-.04.189-.459.12-.618.155a.749.749 0 0 0-.439.241c-.219.258-.199.585-.12.877.04.138.239.172.359.086.12-.103.2.12.2.172.02.103 0 .224.02.327.02.155.04.327.16.447.02.034.18.138.18.138l-.18.155c-.14.155-.18.361-.219.551-.02.189-.04.378-.1.55-.1.241-.279.293-.559.293-.598 0-1.177-.017-1.776.052-.18.052-.239.224-.08.241z"/>
  <path fill="#fff" d="M40.34 6.238c.08-.138.12-.275.08-.43-.02-.069-.06-.138-.12-.206s-.16-.103-.219-.155c-.06-.052-.04-.155-.06-.224s-.06-.138-.12-.189c-.14-.12-.339-.155-.519-.138-.219.017-.399.103-.618.155-.239.052-.419-.155-.638-.224-.439-.138-.938-.052-1.377.034l.279.241c.199-.671.1-1.376-.259-1.979-.04.103-.1.189-.14.292.519-.138 1.137-.378 1.117-.929-.02-.224-.18-.378-.379-.499-.259-.155-.459-.31-.599-.568-.239-.43-.379-.998-.918-1.256-.419-.206-1.017-.12-1.237.258h.399c-.239-.43-.898-.413-1.337-.241-.319.12-.638.344-.998.275-.299-.052-.559-.206-.858-.206-.698 0-.658.723-1.137.981-.239.12-.519.155-.778.069-.279-.103-.519-.241-.838-.258-.299 0-.598.103-.878.189-.259.086-.578.224-.838.103-.1-.052-.199-.034-.299.034-.918.637-1.237 1.669-1.317 2.65-.02.292-.02.585-.02.877 0 .138 0 .292-.02.43 0-.052-.02.069-.02.052-.02 0 .12-.052.12-.034 0 0-.08-.138-.08-.155-.02-.103-.04-.224-.06-.344a2.07 2.07 0 0 0-.359-.791c-.339-.43-.898-.671-1.476-.43-.1.034-.239.12-.339.138-.12 0-.2-.103-.319-.138-.18-.069-.359 0-.499.12-.06.052-.2.31-.319.31-.06 0 .04.017 0 0-.02-.017-.04-.103-.04-.138-.02-.103-.04-.206-.08-.31-.18-.413-.758-.551-1.197-.396-.299.103-.499.31-.658.533a.765.765 0 0 0-.1.172l-.06.103c.12.086.18.103.14.017.02-.086-.04-.224-.08-.292-.239-.396-.918-.499-1.277-.172-.219.189.12.499.359.31.12-.103.339-.086.439.017.14.155.06.378.259.499s.439.034.579-.12c.16-.224.219-.482.479-.637.16-.103.459-.138.618.017.14.155.1.396.2.568.259.378.698.189.958-.069.06-.052.1-.138.18-.172.04-.017-.08-.017-.04.017s.08.052.12.086c.239.138.499.052.738-.034.279-.103.499-.172.758 0 .279.172.419.465.499.74.1.31.06.826.519.929.519.12.539-.499.539-.774 0-1.118.02-2.529 1.157-3.269h-.239c.678.292 1.217-.172 1.875-.241.379-.034.678.258 1.057.292.339.034.678-.052.958-.206.319-.189.419-.43.578-.723.2-.379.658-.052.998.017.419.086.778-.069 1.137-.241.259-.103.758-.292.938 0 .08.12.319.138.399 0 .18-.31.638-.138.838.052.279.275.359.671.559.998.08.155.2.292.339.413.14.103.319.172.439.275.16.12.1.31-.04.43-.16.138-.419.189-.638.241a.195.195 0 0 0-.14.292 2.23 2.23 0 0 1 .219 1.669c-.04.155.12.292.279.241.359-.069.738-.155 1.097-.052.14.052.259.138.399.189.16.052.319.052.479.034.16-.034.299-.103.459-.138.18-.034.239 0 .279.138.02.138.08.241.199.327.14.086.359.138.239.344-.14.224.16.379.279.206z"/>
  <path fill="#fff" d="m40.34 6.238.023.016.001-.001.001-.001-.024-.014zm.08-.43.027-.007-.027.008zm-.519-.774zm-.518-.138.002.028h.001l-.003-.028zm-.619.155.006.027h.001l-.006-.027zm-.638-.224zm-1.377.035-.005-.027-.056.011.043.037.018-.021zm.28.241-.018.021.033.028.012-.041-.027-.008zm-.26-1.979.024-.014-.029-.049-.021.053.026.01zm-.139.293-.026-.01-.02.051.053-.014-.007-.027zm1.117-.929.028-.001v-.002l-.028.002zm-.379-.499.014-.024-.014.024zm-.599-.568.025-.013-.024.014zM35.852.165 35.84.19l.012-.025zm-1.237.258-.024-.014-.024.042h.048V.423zm.399 0v.028h.047L35.038.41l-.024.014zM33.677.182l.01.026-.01-.026zm-.997.275.005-.027h-.001l-.005.027zm-1.995.775.013.025h.001l-.013-.024zm-.778.068-.01.026h.001l.009-.026zm-.838-.258.002-.028h-.002v.028zm-.878.19-.008-.027h-.001l.009.026zm-.838.103-.013.025h.001l.012-.025zm-.299.034-.016-.023.016.023zm-1.317 2.65-.028-.002.028.002zm-.04 1.307h-.028l.055.004-.028-.004zm-.02.052h.028V5.35h-.028v.028zm.12-.034-.024.014.052.09v-.103h-.028zm-.08-.155h.028v-.006l-.027.005zm-.06-.344.027-.005v-.002l-.027.006zm-.359-.792.022-.017v-.001l-.022.017zm-1.476-.43.009.026h.002l-.011-.026zm-.339.138v.028h.004l-.005-.027zm-.32-.138-.01.026h.002l.008-.027zm-.857.293h.028V3.91l-.027.005zm-.08-.31.026-.01v-.001l-.026.011zm-1.197-.396.009.026-.009-.026zm-.659.534.022.017-.023-.016zm-.099.172.024.014.001-.002.001-.002-.026-.01zm-.06.103-.024-.014-.013.022.02.015.016-.023zm.14.017-.027-.006-.002.009.004.009.025-.012zm-.08-.292.024-.014-.024.014zm-1.277-.173.018.021.001-.001-.019-.021zm.359.31.017.022-.018-.021zm.439.017.021-.019-.001-.001-.02.019zm.838.379.021.019.001-.001.001-.001-.023-.016zm.479-.637.014.024-.015-.023zm.618.017.021-.019-.001-.001-.001-.001-.019.02zm.2.568-.024.014.001.001.001.001.023-.016zm.957-.069-.018-.021-.001.001-.001.001.02.02zm.18-.172zm.079.104-.018.021.002.002.002.001.014-.024zm.739-.035.009.026-.01-.026zm.758 0-.015.023.001.001.015-.024zm.498.74-.027.008.026-.009zm.519.929.006-.027-.006.027zm1.696-4.043.015.023.079-.051h-.094v.028zm-.239 0v-.028l-.011.053.011-.026zm1.875-.241-.003-.028.003.028zm1.057.293.003-.028-.003.028zm.958-.207.013.024-.014-.024zm.578-.722.024.013-.025-.013zm.998.017.006-.027-.006.027zm1.137-.241-.01-.026h-.002l.012.025zm.938 0-.024.015.023-.015zm.399 0zm.838.051.02-.02-.019.02zm.558.998.025-.013v-.001l-.001-.001-.024.014zm.339.413-.018.021.001.001.001.001.017-.022zm.439.276-.018.021.001.001.001.001.017-.022zm-.04.43zm-.638.24.006.027h.001l-.006-.027zm-.14.293.024-.014-.024.014zm.22 1.669.027.007-.027-.007zm.279.241-.005-.027h-.002l-.002.001.009.026zm1.097-.052.01-.026h-.002l-.008.027zm.399.189-.01.026h.001l.009-.026zm.479.035.003.028h.002l-.006-.027zm.459-.138-.005-.027h-.001l.006.027zm.279.138.028-.004v-.002l-.001-.002-.027.008zm.2.327-.016.023.001.001h.001l.015-.024zm.239.344.024.015-.024-.014zm.303.22c.082-.141.125-.287.083-.451l-.054.014c.037.145.001.275-.077.409l.048.028zm.083-.452a.583.583 0 0 0-.125-.217l-.042.037a.535.535 0 0 1 .114.196l.053-.016zm-.125-.217a.458.458 0 0 0-.117-.09c-.042-.025-.078-.044-.106-.068l-.036.042c.032.028.076.051.114.074.04.024.076.048.103.078l.042-.037zm-.223-.157c-.021-.019-.031-.048-.035-.088l-.005-.061a.309.309 0 0 0-.01-.062l-.053.016a.247.247 0 0 1 .008.052c.002.019.003.042.006.062.005.042.016.09.054.123l.036-.042zm-.051-.211a.43.43 0 0 0-.128-.203l-.036.042a.37.37 0 0 1 .111.176l.053-.016zm-.128-.202c-.147-.127-.356-.162-.54-.144l.005.055c.175-.017.366.017.498.131l.036-.042zm-.539-.145c-.113.009-.215.035-.315.066s-.199.064-.308.09l.013.054c.111-.026.212-.061.311-.091s.197-.055.303-.063l-.004-.056zm-.623.156c-.11.024-.207-.011-.308-.064-.051-.027-.099-.056-.153-.086a.862.862 0 0 0-.164-.073l-.017.053a.837.837 0 0 1 .154.069c.049.027.103.059.154.086a.496.496 0 0 0 .346.069l-.012-.054zm-.624-.223c-.447-.14-.952-.052-1.39.034l.011.055c.44-.086.932-.17 1.363-.035l.017-.053zm-1.403.082.147.127.132.114.036-.042-.132-.114-.147-.127-.036.042zm.324.228a2.491 2.491 0 0 0-.262-2.001l-.048.029c.355.596.454 1.293.257 1.956l.053.016zm-.312-1.997c-.019.05-.043.096-.068.143s-.051.096-.071.149l.052.02c.019-.05.043-.096.068-.143s.051-.096.071-.149l-.052-.02zm-.106.329c.26-.069.548-.165.769-.313s.379-.355.369-.643l-.056.002c.01.262-.132.452-.344.595s-.493.237-.752.306l.014.054zm1.138-.958c-.021-.237-.191-.398-.392-.52l-.029.048c.197.119.347.267.366.478l.055-.005zm-.393-.52c-.258-.154-.452-.306-.588-.557l-.049.026c.143.265.348.423.609.578l.029-.048zm-.588-.558c-.059-.107-.112-.222-.168-.34s-.112-.238-.179-.353c-.134-.231-.307-.442-.583-.575l-.024.05c.262.126.428.327.559.552.065.113.122.231.177.349s.109.235.17.343l.049-.027zM35.864.14c-.215-.106-.476-.137-.711-.093s-.448.164-.563.362l.048.028c.105-.18.301-.293.525-.335s.472-.012.676.088l.025-.05zm-1.249.311h.512V.395h-.512v.056zm.423-.042c-.126-.226-.36-.332-.615-.36s-.533.02-.756.107l.02.052c.216-.085.486-.131.73-.104s.459.128.572.332l.049-.027zM33.667.156c-.081.03-.161.067-.242.104s-.161.074-.242.104a.9.9 0 0 1-.499.065l-.01.055a.96.96 0 0 0 .529-.068c.083-.032.165-.069.245-.106s.16-.073.238-.103l-.02-.052zm-.983.274c-.147-.025-.284-.076-.425-.122a1.419 1.419 0 0 0-.437-.085v.056c.145 0 .281.037.42.083.138.045.281.097.433.124l.009-.055zm-.862-.207c-.18 0-.314.047-.421.122s-.184.177-.253.284c-.07.109-.13.22-.204.324a.808.808 0 0 1-.272.254l.026.049a.86.86 0 0 0 .291-.27c.075-.104.139-.223.206-.326.068-.106.141-.2.239-.269s.22-.112.389-.112V.223zm-1.15.984a.987.987 0 0 1-.757.067l-.018.053c.267.089.554.053.799-.07l-.025-.05zm-.756.067c-.069-.026-.136-.053-.203-.081s-.133-.055-.201-.08a1.466 1.466 0 0 0-.442-.098l-.003.056c.156.008.293.046.426.095.067.024.132.052.199.079s.134.056.205.082l.019-.052zm-.847-.259c-.304 0-.608.105-.886.19l.016.053c.281-.087.576-.188.87-.188v-.056zm-.887.19c-.131.044-.273.099-.416.128s-.28.033-.402-.024l-.023.05c.138.064.289.058.436.028s.294-.087.422-.13l-.018-.053zm-.816.105c-.111-.058-.222-.037-.328.036l.032.046c.094-.065.182-.078.271-.033l.026-.049zm-.328.036c-.928.643-1.248 1.686-1.329 2.67l.055.005c.08-.977.397-1.999 1.305-2.629l-.032-.046zm-1.329 2.671c-.02.294-.02.587-.02.879h.056c0-.293 0-.584.02-.876l-.056-.004zm-.02.879c0 .138 0 .291-.02.426l.055.008c.02-.14.02-.297.02-.434h-.056zm.036.43v-.01l-.002-.011c-.001-.002-.002-.007-.007-.012-.003-.003-.007-.006-.013-.008s-.012-.001-.017 0a.029.029 0 0 0-.014.01l-.004.006a.109.109 0 0 0-.005.014l-.004.016-.004.017-.003.014-.001.006v-.001l.001-.003c0-.001.002-.004.006-.007s.016-.011.031-.003c.01.005.013.014.013.015l.001.005v.003h-.056v.005l.001.006c0 .001.003.01.014.015.014.007.027 0 .031-.003s.006-.007.006-.008l.003-.005.003-.012a.197.197 0 0 0 .003-.015l.004-.016.003-.014.001-.005-.002.003c-.001.001-.005.006-.013.009-.005.002-.01.002-.016 0s-.01-.005-.012-.007a.022.022 0 0 1-.006-.01l-.001-.002v.006h.056zm-.048.024.007.001c.002.001.016.005.019.021a.026.026 0 0 1-.006.023l-.004.004.006-.003.04-.015c.016-.005.031-.01.042-.012l.006-.001h.002-.002a.025.025 0 0 1-.018-.024h.056a.032.032 0 0 0-.016-.027c-.006-.004-.013-.004-.016-.004a.15.15 0 0 0-.022.002.332.332 0 0 0-.049.014l-.045.017a.12.12 0 0 0-.016.008l-.006.005a.027.027 0 0 0-.006.024.03.03 0 0 0 .02.022.039.039 0 0 0 .009.001V5.35zm.12-.006.024-.014-.001-.001-.003-.004-.009-.016-.027-.049a1.418 1.418 0 0 1-.027-.051l-.008-.018-.002-.005v.003h-.056l.002.013.003.009a3.12 3.12 0 0 0 .038.076l.028.05.009.016.003.004.001.001c.001 0 0 0 0 0l.024-.014zm-.053-.161a13.78 13.78 0 0 1-.06-.343l-.055.009c.02.12.04.241.06.345l.055-.011zm-.06-.344a2.097 2.097 0 0 0-.364-.802l-.045.033c.177.238.295.509.354.781l.054-.012zm-.364-.803c-.345-.437-.916-.685-1.509-.439l.021.051c.564-.235 1.11-.001 1.444.422l.044-.034zm-1.507-.439c-.052.018-.114.049-.172.076a.719.719 0 0 1-.163.06l.009.055a.753.753 0 0 0 .177-.065c.061-.029.119-.058.167-.074l-.018-.053zm-.33.136a.276.276 0 0 1-.145-.052c-.048-.029-.102-.066-.166-.085l-.015.054c.055.016.101.047.153.079.05.03.106.06.174.06v-.056zm-.31-.136c-.193-.074-.383.001-.527.125l.036.042c.135-.117.304-.179.471-.116l.02-.052zm-.526.125a.44.44 0 0 0-.062.075c-.024.032-.05.068-.078.103s-.057.067-.086.09c-.029.024-.054.035-.074.035v.056c.04 0 .077-.021.109-.047s.065-.062.094-.098c.029-.036.056-.074.08-.105a.579.579 0 0 1 .054-.066l-.036-.042zm-.301.303-.019.001-.005.001-.006.002-.005.002-.006.005c-.002.003-.005.006-.006.011v.014l.004.01.005.005.006.004.007.003.012.003.012.001h.011l.005-.001.009-.004a.023.023 0 0 0 .011-.015c.001-.004.002-.008.001-.012s-.001-.007-.003-.009l-.006-.009-.005-.004-.004-.003a.03.03 0 0 0-.008-.004l-.022.051.003.002c0 .001 0 0 0 0l-.002-.002-.005-.007-.002-.008.001-.011a.03.03 0 0 1 .011-.014l.007-.003.003-.001h.001-.001l-.006-.001-.005-.001.002.001.005.003c.001.001.003.002.004.005l.004.009v.014c-.001.005-.003.008-.006.01l-.006.005-.004.002-.003.001h-.001.012v-.056zm.018.007s-.003-.003-.007-.014l-.012-.035a.336.336 0 0 1-.012-.068h-.056a.394.394 0 0 0 .027.124.104.104 0 0 0 .022.034l.036-.042zm-.031-.122c-.02-.103-.04-.209-.081-.314l-.052.02c.039.101.058.201.078.305l.055-.011zm-.082-.315c-.094-.216-.291-.358-.519-.426s-.488-.064-.713.015l.019.052c.214-.075.462-.08.678-.015s.398.198.484.395l.051-.022zm-1.231-.411c-.307.106-.511.318-.672.543l.045.032c.158-.221.353-.423.645-.523l-.018-.053zm-.672.543a.783.783 0 0 0-.104.179l.052.02a.726.726 0 0 1 .096-.165l-.044-.034zm-.101.175-.03.052-.03.052.048.028.03-.052.03-.052-.048-.028zm-.052.139c.03.022.057.04.08.053s.043.022.061.025c.009.002.02.002.031-.003a.042.042 0 0 0 .023-.029.065.065 0 0 0-.002-.031l-.012-.032-.051.023c.005.01.007.017.009.023l.001.006c.001-.003.003-.008.009-.01.004-.002.005-.001.001-.001-.007-.001-.021-.007-.043-.019s-.046-.028-.075-.049l-.032.045zm.183.001a.329.329 0 0 0-.018-.168.768.768 0 0 0-.065-.145l-.048.028a.78.78 0 0 1 .06.134c.017.053.025.103.017.138l.054.013zm-.084-.313c-.125-.207-.363-.335-.613-.37s-.519.022-.706.192l.037.041c.172-.157.422-.212.661-.178s.459.155.574.344l.048-.029zm-1.318-.179a.21.21 0 0 0-.08.178.245.245 0 0 0 .087.16.298.298 0 0 0 .387.014l-.035-.044a.243.243 0 0 1-.316-.012.19.19 0 0 1-.068-.124c-.004-.043.012-.089.061-.131l-.036-.042zm.395.352c.053-.046.13-.066.207-.062s.15.032.193.078l.04-.039c-.056-.058-.143-.09-.23-.094s-.18.018-.247.076l.036.042zm.4.015c.064.071.078.157.101.25.023.092.055.188.165.254l.029-.048c-.09-.054-.117-.131-.139-.219-.022-.087-.038-.19-.114-.274l-.041.037zm.266.504c.215.13.468.035.614-.126l-.041-.037c-.134.149-.359.226-.544.115l-.029.048zm.615-.128c.041-.057.075-.116.107-.175s.063-.116.096-.171a.766.766 0 0 1 .267-.283l-.029-.048a.82.82 0 0 0-.286.302c-.034.057-.065.116-.097.173s-.065.115-.104.169l.045.032zm.472-.629c.075-.049.184-.082.295-.084s.217.027.289.098l.039-.04c-.087-.084-.21-.115-.329-.113s-.239.038-.324.093l.03.047zm.582.012a.53.53 0 0 1 .108.264c.019.099.035.208.088.299l.048-.028c-.047-.081-.061-.178-.082-.282a.588.588 0 0 0-.121-.291l-.041.037zm.198.565c.068.099.148.162.236.195s.18.037.271.02a.997.997 0 0 0 .493-.281l-.039-.039a.943.943 0 0 1-.464.266c-.083.015-.165.012-.241-.018s-.148-.084-.21-.175l-.046.031zm.998-.063c.032-.028.06-.066.085-.096a.245.245 0 0 1 .087-.072l-.022-.051a.3.3 0 0 0-.107.087c-.029.035-.051.066-.079.089l.036.042zm.173-.168.011-.006a.032.032 0 0 0 .012-.015c.002-.005.003-.01.002-.017s-.004-.011-.007-.014c-.005-.006-.011-.008-.014-.01l-.019-.004c-.005-.001-.012 0-.019.001l-.02.004c-.006.002-.014.005-.021.011s-.014.019-.012.034c.002.012.01.021.017.027l.036-.042c-.003-.003 0-.001.001.005.001.003 0 .007-.001.011s-.003.005-.004.007c-.002.002-.003.001 0 .001l.009-.002h.012c-.002-.001-.005-.002-.009-.006-.002-.003-.005-.007-.006-.012s0-.01.001-.014.003-.006.005-.007l.003-.002h-.001l.022.051zm-.069.013c.022.019.043.032.063.045s.038.025.057.041l.036-.042c-.022-.019-.043-.032-.063-.045s-.038-.025-.057-.041l-.036.042zm.124.089c.252.145.524.053.761-.032l-.019-.052c-.241.087-.488.167-.715.036l-.028.048zm.761-.033c.14-.052.261-.093.379-.102a.54.54 0 0 1 .354.099l.031-.046a.602.602 0 0 0-.389-.108 1.446 1.446 0 0 0-.394.105l.019.052zm.734-.002c.271.167.408.451.487.724l.053-.016c-.081-.278-.223-.578-.511-.756l-.029.047zm.487.724c.024.075.04.164.058.258s.036.192.067.284c.031.093.073.18.139.252s.155.126.275.154l.012-.054c-.109-.025-.188-.073-.246-.137s-.098-.144-.127-.232c-.029-.088-.048-.183-.065-.277s-.034-.185-.059-.265l-.053.017zm.539.948c.135.031.241.015.324-.035s.136-.13.172-.221c.072-.18.077-.409.077-.546h-.056c0 .138-.005.357-.073.525-.034.084-.082.153-.149.194s-.158.057-.282.028l-.013.054zm.573-.801c0-.56.005-1.188.151-1.77s.432-1.111.993-1.476l-.03-.047c-.576.375-.869.919-1.017 1.509s-.153 1.224-.153 1.783h.056zm1.129-3.297v.056-.056zm-.25.053c.348.15.66.105.964.016.151-.044.304-.1.455-.148a2.41 2.41 0 0 1 .47-.107l-.006-.055c-.167.018-.326.06-.481.109-.156.049-.303.104-.454.148-.299.087-.596.129-.926-.014l-.022.051zm1.888-.238c.182-.016.346.045.515.118.168.072.342.157.537.174l.005-.055c-.184-.017-.349-.096-.52-.17-.17-.073-.345-.141-.542-.123l.005.055zm1.052.292c.346.035.69-.053.974-.21l-.027-.049a1.628 1.628 0 0 1-.941.203l-.006.055zm.975-.21c.327-.194.43-.443.589-.733l-.049-.027c-.161.295-.257.527-.568.712l.028.048zm.589-.733a.28.28 0 0 1 .175-.153c.07-.02.151-.013.24.008s.183.056.277.09c.093.034.188.068.275.086l.011-.055c-.082-.017-.173-.049-.267-.084s-.19-.07-.283-.092a.532.532 0 0 0-.268-.007.339.339 0 0 0-.209.18l.049.026zm.967.031c.429.088.796-.071 1.155-.243l-.024-.05c-.359.172-.711.323-1.12.239l-.011.055zm1.153-.242c.13-.052.316-.123.492-.147.177-.023.331.004.412.135l.047-.029c-.099-.161-.284-.185-.466-.161a2.241 2.241 0 0 0-.505.15l.021.052zm.904-.011c.046.07.136.107.222.109s.178-.03.224-.111l-.048-.028c-.033.057-.101.085-.175.083s-.144-.034-.177-.084l-.046.031zm.447-.001c.082-.141.227-.175.383-.148s.316.115.412.206l.038-.04c-.103-.098-.273-.191-.441-.22s-.342.006-.44.175l.048.028zm.794.057c.136.134.224.298.303.471.079.172.15.356.251.521l.048-.029c-.099-.162-.167-.339-.248-.515a1.589 1.589 0 0 0-.315-.488l-.039.04zm.553.991c.082.159.204.299.346.421l.036-.042a1.387 1.387 0 0 1-.333-.405l-.049.026zm.348.423c.072.053.153.097.23.14s.15.085.207.134l.036-.042c-.062-.054-.14-.098-.217-.141s-.156-.085-.224-.136l-.033.045zm.438.275a.189.189 0 0 1 .082.188.35.35 0 0 1-.123.198l.036.042a.4.4 0 0 0 .141-.232.244.244 0 0 0-.103-.242l-.034.044zm-.041.387c-.076.065-.176.111-.287.147s-.229.062-.339.088l.013.054c.109-.026.23-.052.344-.089s.222-.086.306-.158l-.036-.042zm-.626.234c-.089.019-.146.072-.172.137s-.02.137.014.196l.048-.028c-.026-.044-.03-.1-.011-.148s.061-.088.132-.104l-.012-.054zm-.158.334c.296.527.355 1.087.217 1.649l.054.013a2.259 2.259 0 0 0-.222-1.689l-.049.027zm.217 1.648c-.046.179.138.332.315.274l-.017-.053c-.142.046-.277-.077-.244-.207l-.054-.014zm.311.275c.361-.069.733-.153 1.084-.052l.015-.053c-.367-.105-.753-.017-1.11.051l.01.055zm1.083-.053c.068.025.131.059.196.093s.131.07.203.096l.019-.052c-.068-.025-.131-.059-.196-.093s-.131-.07-.203-.096l-.019.052zm.4.19c.165.053.329.053.49.036l-.006-.055a1.101 1.101 0 0 1-.467-.033l-.017.053zm.493.035c.082-.018.158-.044.233-.07s.148-.051.226-.068l-.012-.054c-.082.018-.158.044-.233.07s-.148.051-.226.068l.012.054zm.458-.138c.089-.017.141-.015.174.002.032.016.054.049.073.116l.053-.016c-.02-.071-.048-.123-.101-.15-.051-.026-.12-.024-.21-.007l.01.055zm.247.115a.483.483 0 0 0 .211.345l.032-.045a.432.432 0 0 1-.188-.308l-.055.008zm.212.346c.036.022.078.042.115.062.038.02.072.04.099.062s.041.045.046.072c.005.027-.001.062-.029.11l.048.028c.032-.055.043-.104.036-.147s-.033-.078-.064-.105c-.031-.027-.071-.049-.109-.069s-.078-.039-.111-.06l-.029.047zm.231.306c-.038.061-.048.12-.036.172s.045.092.087.118c.082.051.205.048.274-.053l-.046-.032c-.05.071-.137.076-.199.037-.031-.019-.054-.048-.062-.084s-.003-.079.029-.13l-.047-.029z"/>
  <path fill="#fff" d="M19.014 3.571c.12-.017.16-.052.12-.12a.284.284 0 0 0-.04-.12.393.393 0 0 0-.14-.155.47.47 0 0 0-.339-.069c-.22.052-.599.447-.758.189-.08-.138-.399-.12-.419.052a.53.53 0 0 1-.359.413l.319.275c.12-.189.08-.396-.12-.533-.239-.189-.519-.189-.818-.155-.14.017-.279.017-.379-.052s-.16-.189-.239-.275c-.199-.241-.479-.31-.778-.396a22.946 22.946 0 0 0-4.469-.688 32.013 32.013 0 0 0-2.234-.034c-.539.017-1.117.103-1.576.361-.22.12-.399.292-.519.482-.1.138-.18.447-.359.516-.12.052-.22-.017-.319-.069a1.019 1.019 0 0 0-.399-.086.685.685 0 0 0-.539.327c-.279.482-.08 1.153.1 1.634a4.004 4.004 0 0 0 1.177 1.6l.12-.361c-.259.052-.439.275-.439.499 0 .31.279.533.339.826.04.155.02.327-.1.447-.14.138-.279.103-.459.12-.399 0-.599.293-.838.533-.559.568-1.117 1.153-1.676 1.72-.459.482-1.077.981-1.237 1.617-.2.74.16 1.48.519 2.151.02-.103.06-.189.08-.293-.06.017-.239-.069-.299-.086-.14 0-.259-.034-.399-.017-.339.069-.439.43-.559.671-.18.361-.379.705-.559 1.067-.14.258-.419.602-.359.912s.519.533.778.723c.339.241.678.499 1.017.74.239.172.519.378.858.396.299.017.579-.086.738-.31.14-.224-.259-.43-.399-.206-.259.447-1.137-.361-1.357-.516-.259-.189-.499-.361-.758-.551-.12-.086-.279-.155-.359-.258-.12-.155.04-.327.1-.465.279-.499.539-.998.818-1.514.04-.069.1-.258.18-.275.06-.017.2.069.239.086.199.069.359.086.559 0 .12-.052.14-.189.08-.293-.379-.705-.758-1.548-.219-2.288.239-.327.559-.619.858-.912.319-.327.638-.654.938-.981.319-.327.638-.654.938-.981.06-.069.14-.189.239-.206.1-.034.239 0 .359 0a.86.86 0 0 0 .419-.155c.299-.206.399-.516.359-.843-.02-.189-.1-.361-.199-.516-.04-.069-.239-.344-.06-.378s.239-.258.12-.361c-.399-.344-.738-.757-.938-1.222-.18-.396-.379-.929-.279-1.359.04-.189.12-.292.339-.206s.439.172.678.086c.439-.155.499-.585.758-.86.279-.31.798-.413 1.237-.465a15.123 15.123 0 0 1 1.776-.034c1.337.034 2.673.189 3.99.447.359.069.718.138 1.057.224.14.034.319.052.439.12s.18.172.259.275c.16.189.359.327.638.344.16.017.319-.017.479-.017.04 0 .319.034.279.103-.12.189.12.361.319.275a.94.94 0 0 0 .579-.723c-.14.034-.279.069-.439.103.12.189.339.292.599.292.12 0 .239-.052.339-.103s.2-.172.299-.189c.06-.017 0-.034.04.052.02.052.04.12.06.155.06.069.14.12.239.155.2.052.379-.052.399-.241-.02-.189-.399-.241-.439-.052z"/>
  <path fill="#fff" d="M3.273 17.937c0-.017-.02-.017-.04-.017.02.017.06.017.08.017h.02c-.04 0-.08-.017-.1-.017.02.017.04.034.06.034h.12c.02 0 .02 0 .04-.017-.02 0-.02 0-.04.017h.02c.02 0 .02 0 .04-.017.02 0 .02-.017.04-.034s.04-.052.02-.069c0-.017 0-.034-.02-.052 0-.017-.02-.017-.04-.034s-.02-.017-.04-.017h-.06c-.02 0-.06 0-.08.017 0 0-.02 0-.02.017-.02 0-.02.017-.04.017a.123.123 0 0 0-.04.086c.02-.017.02-.052.04-.069l-.04.034c-.02.017-.02.052-.02.069v-.052c-.02.017-.02.034-.02.052s0 .052.02.069h.04c.02-.017.04-.017.06-.034z"/>
  <path fill="#fff" d="M3.273 17.951c.015 0 .024-.007.029-.012s.006-.005.011-.005v-.028c-.015 0-.024.007-.029.012s-.006.005-.011.005v.028zm0-.014.018.021.01-.008v-.013h-.028zm-.04-.017v-.028h-.075l.057.049.018-.021zm.22.017.018.021.057-.049h-.075v.028zm.02 0v-.028h-.01l-.008.007.018.021zm.06-.103h-.028v.013l.01.008.018-.021zm-.02-.052h-.028v.013l.01.008.018-.021zm-.22-.034v.028h.01l.008-.007-.018-.021zm-.02.017v.028h.028v-.028h-.028zm-.04.017v-.028h-.01l-.008.007.018.021zm-.04.086h-.028v.061l.046-.04-.018-.021zm-.02-.017h.028v-.061l-.046.04.018.021zm0 .121-.018.021.008.007h.01v-.028zm.04 0V18h.01l.008-.007-.018-.021zm.088-.035c0-.01-.003-.02-.011-.029s-.015-.011-.022-.013c-.012-.003-.027-.003-.035-.003v.056h.013l.007.001-.004-.003-.003-.005-.001-.004h.056zm-.086.004c.016.014.038.019.054.022s.034.002.044.002v-.056c-.01 0-.023 0-.036-.002s-.022-.005-.026-.009l-.036.042zm.098.024h.02v-.056h-.02v.056zm.02-.056a.235.235 0 0 1-.051-.008l-.025-.006a.1.1 0 0 0-.025-.003v.056l.012.002.023.006c.018.004.04.009.064.009v-.056zm-.118.032c.01.008.021.018.033.026s.027.015.045.015v-.056a.032.032 0 0 1-.015-.006l-.027-.021-.036.042zm.078.041v-.056.056zm.04 0h.02v-.056h-.02v.056zm.02 0v-.056.056zm.04 0h.02v-.056h-.02v.056zm.02 0c.008 0 .02 0 .031-.004a.086.086 0 0 0 .027-.02l-.036-.042-.011.009-.002.002h.001-.009v.056zm.04-.073c-.008 0-.02 0-.031.004a.086.086 0 0 0-.027.02l.036.042.011-.009.002-.002h-.001.009v-.056zm-.04.073h.02v-.056h-.02v.056zm.02 0c.008 0 .02 0 .031-.004a.086.086 0 0 0 .027-.02l-.036-.042-.011.009-.002.002h.001-.009v.056zm.04-.017c.009 0 .018-.002.026-.007s.013-.01.016-.015.009-.013.016-.02l-.036-.042c-.013.011-.021.024-.024.028-.002.002-.002.002 0 .001l.003-.001v.056zm.058-.041c.013-.011.026-.028.033-.045s.01-.045-.013-.066l-.036.042-.001-.003c0-.001 0 0 0 0v.001l-.001.004a.063.063 0 0 1-.017.023l.036.042zm.029-.09c0-.008 0-.021-.004-.034a.08.08 0 0 0-.026-.039l-.036.042a.026.026 0 0 1 .009.012l.001.018h.056zm-.02-.052c0-.01-.003-.02-.01-.028a.066.066 0 0 0-.017-.014c-.011-.006-.016-.008-.023-.014l-.036.042a.133.133 0 0 0 .032.02c.003.002.002.002.001 0l-.003-.007h.056zm-.049-.055c-.008-.007-.017-.015-.027-.02-.011-.005-.023-.004-.031-.004v.056h.009-.001l.002.002.011.009.036-.042zm-.058-.024v.056-.056zm-.06 0c-.037 0-.069-.001-.098.024l.036.042c.011-.009.019-.01.062-.01v-.056zm-.08.045v-.028h-.008l-.014.004a.037.037 0 0 0-.018.014.044.044 0 0 0-.009.027H3.3l-.003.007c-.002.003-.004.003-.004.003s-.001 0 0 0v-.028zm-.02-.011a.051.051 0 0 0-.025.006l-.014.01-.003.002h.001v.056a.051.051 0 0 0 .025-.006l.014-.01.003-.002h-.001v-.056zm-.058.024a.151.151 0 0 0-.05.107h.056c0-.025.015-.052.03-.065l-.036-.042zm-.003.128c.016-.014.023-.034.028-.045.006-.014.008-.02.012-.023l-.036-.042c-.016.014-.023.034-.028.045-.006.014-.008.02-.012.023l.036.042zm.003-.111-.02.017-.02.017.036.042.02-.017.02-.017-.036-.042zm-.04.035c-.017.015-.024.035-.027.05s-.003.031-.003.04h.056c0-.009 0-.019.002-.029s.005-.016.008-.019l-.036-.042zm.026.09h-.056.056zm-.046-.073c-.014.012-.022.025-.026.039s-.004.026-.004.034h.056l.001-.018a.033.033 0 0 1 .009-.013l-.036-.042zm-.029.073c0 .008 0 .024.003.04s.01.036.027.05l.036-.042c-.003-.003-.006-.008-.008-.019s-.002-.02-.002-.029h-.056zm.047.096v-.056.056zm.059-.006c.006-.005.013-.008.023-.013s.023-.01.037-.022l-.036-.042c-.006.006-.013.008-.023.013s-.023.01-.037.022l.036.042z"/>
  <path fill="#fff" d="M3.214 17.92a.9.9 0 0 1 .559.189c.12.086.259.189.419.224.16.052.319.034.479-.034.14-.052.239-.12.399-.069.319.086.539.275.878.258.08 0 .16-.034.239-.034.14 0 .2.069.319.12.14.052.279.069.419.052.279-.034.579-.189.778.052.16.189.239.396.439.55.239.189.579.206.858.103.18-.052.339-.155.479-.241s.279-.155.339-.31c.04-.103-.06-.189-.18-.189-.379-.034-.599.447-1.018.413-.279-.017-.379-.31-.499-.482-.14-.189-.319-.344-.598-.378-.14-.017-.299.017-.439.034-.199.034-.299.069-.479-.034a.753.753 0 0 0-.479-.103c-.18.017-.299.052-.479 0-.279-.103-.519-.292-.838-.241-.14.017-.259.12-.399.155-.2.034-.379-.103-.539-.172-.239-.103-.559-.189-.718.052-.02.034 0 .086.06.086z"/>
  <path fill="#fff" d="M9.657 18.815c.339-.12.638-.206 1.018-.241.339-.034.658-.034.998-.086.579-.086 1.157-.275 1.416-.74.06-.12.1-.258.2-.344.12-.12.299-.069.459-.086.14 0 .279-.034.399-.103.14-.086.199-.241.339-.31s.319-.069.479-.086c.2-.017.379-.052.579-.103.379-.086.738-.206 1.137-.172.878.052 1.536.619 2.254.963.16.069.299-.103.18-.206a4.155 4.155 0 0 0-1.955-1.049 2.858 2.858 0 0 0-1.077-.052c-.439.069-.818.224-1.277.241-.379.017-.579.12-.818.361-.16.155-.279.12-.499.138a.693.693 0 0 0-.419.12c-.259.172-.299.482-.519.688-.22.224-.539.31-.858.378-.698.12-1.676 0-2.175.568-.08.069.06.138.14.12zM37.148 2.986c-.02.224-.04.447-.04.671 0 .103-.02.224-.02.327v.172c0 .052-.02.103.02.138 0 .017.04.017.04 0 .04-.034.04-.069.04-.12v-.172c0-.103.02-.224.02-.327.02-.224.02-.447.02-.688-.02-.034-.08-.034-.08 0z"/>
</svg>
