<svg xmlns="http://www.w3.org/2000/svg" aria-hidden="true" style="position:absolute;width:0;height:0;overflow:hidden">
  <defs>
    <symbol id="icon-icon-left-arrow-144" viewBox="0 0 97 16">
      <path d="M.626 7.293a.999.999 0 0 0 0 1.414l6.364 6.364a.999.999 0 1 0 1.414-1.414L2.747 8l5.657-5.657A.999.999 0 1 0 6.99.929L.626 7.293zM97.333 7h-96v2h96V7z"/>
    </symbol>
    <symbol id="icon-icon-left-arrow-114" viewBox="0 0 77 16">
      <path d="M.626 7.293a.999.999 0 0 0 0 1.414l6.364 6.364a.999.999 0 1 0 1.414-1.414L2.747 8l5.657-5.657A.999.999 0 1 0 6.99.929L.626 7.293zM77.333 7h-76v2h76V7z"/>
    </symbol>
  </defs>
</svg>
